<mxfile host="app.diagrams.net" modified="2021-10-12T09:59:28.158Z" agent="5.0 (Windows NT 10.0; Win64; x64) AppleWebKit/537.36 (KHTML, like Gecko) Chrome/94.0.4606.71 Safari/537.36" etag="7GsJzowdPOEKFOhZ93Vx" version="15.5.0" type="github">
  <diagram id="C5RBs43oDa-KdzZeNtuy" name="Page-1">
    <mxGraphModel dx="2329" dy="717" grid="1" gridSize="10" guides="1" tooltips="1" connect="1" arrows="1" fold="1" page="1" pageScale="1" pageWidth="827" pageHeight="1169" math="0" shadow="0">
      <root>
        <mxCell id="WIyWlLk6GJQsqaUBKTNV-0" />
        <mxCell id="WIyWlLk6GJQsqaUBKTNV-1" parent="WIyWlLk6GJQsqaUBKTNV-0" />
        <mxCell id="rUIHVcRXvthAcP_0r2kh-1" value="Plan testu" style="swimlane;fontStyle=0;childLayout=stackLayout;horizontal=1;startSize=26;fillColor=none;horizontalStack=0;resizeParent=1;resizeParentMax=0;resizeLast=0;collapsible=1;marginBottom=0;" parent="WIyWlLk6GJQsqaUBKTNV-1" vertex="1">
          <mxGeometry x="-590" y="89" width="140" height="52" as="geometry" />
        </mxCell>
        <mxCell id="rUIHVcRXvthAcP_0r2kh-4" value="+nazwa [1..1]" style="text;strokeColor=none;fillColor=none;align=left;verticalAlign=top;spacingLeft=4;spacingRight=4;overflow=hidden;rotatable=0;points=[[0,0.5],[1,0.5]];portConstraint=eastwest;" parent="rUIHVcRXvthAcP_0r2kh-1" vertex="1">
          <mxGeometry y="26" width="140" height="26" as="geometry" />
        </mxCell>
        <mxCell id="rUIHVcRXvthAcP_0r2kh-5" value="Zestaw testowy " style="swimlane;fontStyle=0;childLayout=stackLayout;horizontal=1;startSize=26;fillColor=none;horizontalStack=0;resizeParent=1;resizeParentMax=0;resizeLast=0;collapsible=1;marginBottom=0;" parent="WIyWlLk6GJQsqaUBKTNV-1" vertex="1">
          <mxGeometry x="-360" y="89" width="140" height="52" as="geometry" />
        </mxCell>
        <mxCell id="5Vj4jenH8BbNC08_9B11-53" value="+kategoria [1..1]" style="text;strokeColor=none;fillColor=none;align=left;verticalAlign=top;spacingLeft=4;spacingRight=4;overflow=hidden;rotatable=0;points=[[0,0.5],[1,0.5]];portConstraint=eastwest;" parent="rUIHVcRXvthAcP_0r2kh-5" vertex="1">
          <mxGeometry y="26" width="140" height="26" as="geometry" />
        </mxCell>
        <mxCell id="rUIHVcRXvthAcP_0r2kh-13" value="Test" style="swimlane;fontStyle=0;childLayout=stackLayout;horizontal=1;startSize=26;fillColor=none;horizontalStack=0;resizeParent=1;resizeParentMax=0;resizeLast=0;collapsible=1;marginBottom=0;" parent="WIyWlLk6GJQsqaUBKTNV-1" vertex="1">
          <mxGeometry x="60" y="50" width="140" height="130" as="geometry" />
        </mxCell>
        <mxCell id="5Vj4jenH8BbNC08_9B11-20" value="+nazwa [1..1]" style="text;strokeColor=none;fillColor=none;align=left;verticalAlign=top;spacingLeft=4;spacingRight=4;overflow=hidden;rotatable=0;points=[[0,0.5],[1,0.5]];portConstraint=eastwest;" parent="rUIHVcRXvthAcP_0r2kh-13" vertex="1">
          <mxGeometry y="26" width="140" height="26" as="geometry" />
        </mxCell>
        <mxCell id="5Vj4jenH8BbNC08_9B11-55" value="+data utworzenia [1..1]" style="text;strokeColor=none;fillColor=none;align=left;verticalAlign=top;spacingLeft=4;spacingRight=4;overflow=hidden;rotatable=0;points=[[0,0.5],[1,0.5]];portConstraint=eastwest;" parent="rUIHVcRXvthAcP_0r2kh-13" vertex="1">
          <mxGeometry y="52" width="140" height="26" as="geometry" />
        </mxCell>
        <mxCell id="5Vj4jenH8BbNC08_9B11-89" value="+wersja [1..1]" style="text;strokeColor=none;fillColor=none;align=left;verticalAlign=top;spacingLeft=4;spacingRight=4;overflow=hidden;rotatable=0;points=[[0,0.5],[1,0.5]];portConstraint=eastwest;" parent="rUIHVcRXvthAcP_0r2kh-13" vertex="1">
          <mxGeometry y="78" width="140" height="26" as="geometry" />
        </mxCell>
        <mxCell id="5Vj4jenH8BbNC08_9B11-60" value="+liczba wykonań [1..1]" style="text;strokeColor=none;fillColor=none;align=left;verticalAlign=top;spacingLeft=4;spacingRight=4;overflow=hidden;rotatable=0;points=[[0,0.5],[1,0.5]];portConstraint=eastwest;" parent="rUIHVcRXvthAcP_0r2kh-13" vertex="1">
          <mxGeometry y="104" width="140" height="26" as="geometry" />
        </mxCell>
        <mxCell id="5Vj4jenH8BbNC08_9B11-35" style="edgeStyle=orthogonalEdgeStyle;rounded=1;orthogonalLoop=1;jettySize=auto;html=1;endArrow=none;endFill=0;" parent="WIyWlLk6GJQsqaUBKTNV-1" source="Vc3Eoi6ETg7o6c7sWArZ-52" target="Vc3Eoi6ETg7o6c7sWArZ-6" edge="1">
          <mxGeometry relative="1" as="geometry">
            <Array as="points">
              <mxPoint x="-220" y="580" />
            </Array>
          </mxGeometry>
        </mxCell>
        <mxCell id="Vc3Eoi6ETg7o6c7sWArZ-79" value="1" style="edgeLabel;html=1;align=center;verticalAlign=middle;resizable=0;points=[];" parent="5Vj4jenH8BbNC08_9B11-35" vertex="1" connectable="0">
          <mxGeometry x="0.8931" relative="1" as="geometry">
            <mxPoint x="-10" y="10" as="offset" />
          </mxGeometry>
        </mxCell>
        <mxCell id="Vc3Eoi6ETg7o6c7sWArZ-80" value="*" style="edgeLabel;html=1;align=center;verticalAlign=middle;resizable=0;points=[];" parent="5Vj4jenH8BbNC08_9B11-35" vertex="1" connectable="0">
          <mxGeometry x="-0.926" y="-2" relative="1" as="geometry">
            <mxPoint x="7" y="-8" as="offset" />
          </mxGeometry>
        </mxCell>
        <mxCell id="rUIHVcRXvthAcP_0r2kh-67" value="" style="endArrow=none;html=1;edgeStyle=orthogonalEdgeStyle;" parent="WIyWlLk6GJQsqaUBKTNV-1" source="Vc3Eoi6ETg7o6c7sWArZ-6" target="rUIHVcRXvthAcP_0r2kh-5" edge="1">
          <mxGeometry width="50" height="50" relative="1" as="geometry">
            <mxPoint x="-620" y="412" as="sourcePoint" />
            <mxPoint x="-617.0600000000002" y="316.00200000000007" as="targetPoint" />
            <Array as="points">
              <mxPoint x="-310" y="629" />
            </Array>
          </mxGeometry>
        </mxCell>
        <mxCell id="rUIHVcRXvthAcP_0r2kh-68" value="tworzy" style="edgeLabel;html=1;align=center;verticalAlign=middle;resizable=0;points=[];" parent="rUIHVcRXvthAcP_0r2kh-67" vertex="1" connectable="0">
          <mxGeometry x="-0.7163" y="-2" relative="1" as="geometry">
            <mxPoint x="-2" y="63" as="offset" />
          </mxGeometry>
        </mxCell>
        <mxCell id="rUIHVcRXvthAcP_0r2kh-69" value="jest wykonany przez" style="edgeLabel;html=1;align=center;verticalAlign=middle;resizable=0;points=[];" parent="rUIHVcRXvthAcP_0r2kh-67" vertex="1" connectable="0">
          <mxGeometry x="0.6851" relative="1" as="geometry">
            <mxPoint x="60" y="-64" as="offset" />
          </mxGeometry>
        </mxCell>
        <mxCell id="rUIHVcRXvthAcP_0r2kh-70" value="*" style="edgeLabel;html=1;align=center;verticalAlign=middle;resizable=0;points=[];" parent="rUIHVcRXvthAcP_0r2kh-67" vertex="1" connectable="0">
          <mxGeometry x="0.6692" y="1" relative="1" as="geometry">
            <mxPoint x="-9" y="-68" as="offset" />
          </mxGeometry>
        </mxCell>
        <mxCell id="rUIHVcRXvthAcP_0r2kh-71" value="1" style="edgeLabel;html=1;align=center;verticalAlign=middle;resizable=0;points=[];" parent="rUIHVcRXvthAcP_0r2kh-67" vertex="1" connectable="0">
          <mxGeometry x="-0.5588" y="-2" relative="1" as="geometry">
            <mxPoint x="8" y="83" as="offset" />
          </mxGeometry>
        </mxCell>
        <mxCell id="5Vj4jenH8BbNC08_9B11-12" value="Krok" style="swimlane;fontStyle=0;childLayout=stackLayout;horizontal=1;startSize=26;fillColor=none;horizontalStack=0;resizeParent=1;resizeParentMax=0;resizeLast=0;collapsible=1;marginBottom=0;" parent="WIyWlLk6GJQsqaUBKTNV-1" vertex="1">
          <mxGeometry x="200" y="410" width="140" height="104" as="geometry" />
        </mxCell>
        <mxCell id="5Vj4jenH8BbNC08_9B11-69" value="+nr: int [1..1]" style="text;strokeColor=none;fillColor=none;align=left;verticalAlign=top;spacingLeft=4;spacingRight=4;overflow=hidden;rotatable=0;points=[[0,0.5],[1,0.5]];portConstraint=eastwest;" parent="5Vj4jenH8BbNC08_9B11-12" vertex="1">
          <mxGeometry y="26" width="140" height="26" as="geometry" />
        </mxCell>
        <mxCell id="5Vj4jenH8BbNC08_9B11-88" value="+dane testowe [1..1]" style="text;strokeColor=none;fillColor=none;align=left;verticalAlign=top;spacingLeft=4;spacingRight=4;overflow=hidden;rotatable=0;points=[[0,0.5],[1,0.5]];portConstraint=eastwest;" parent="5Vj4jenH8BbNC08_9B11-12" vertex="1">
          <mxGeometry y="52" width="140" height="26" as="geometry" />
        </mxCell>
        <mxCell id="5Vj4jenH8BbNC08_9B11-16" value="+punkt kontrolny [1..1]" style="text;strokeColor=none;fillColor=none;align=left;verticalAlign=top;spacingLeft=4;spacingRight=4;overflow=hidden;rotatable=0;points=[[0,0.5],[1,0.5]];portConstraint=eastwest;" parent="5Vj4jenH8BbNC08_9B11-12" vertex="1">
          <mxGeometry y="78" width="140" height="26" as="geometry" />
        </mxCell>
        <mxCell id="5Vj4jenH8BbNC08_9B11-51" value="" style="endArrow=diamondThin;endFill=1;endSize=24;html=1;edgeStyle=orthogonalEdgeStyle;" parent="WIyWlLk6GJQsqaUBKTNV-1" source="rUIHVcRXvthAcP_0r2kh-13" target="rUIHVcRXvthAcP_0r2kh-5" edge="1">
          <mxGeometry width="160" relative="1" as="geometry">
            <mxPoint x="110" y="116" as="sourcePoint" />
            <mxPoint x="232" y="115" as="targetPoint" />
          </mxGeometry>
        </mxCell>
        <mxCell id="5Vj4jenH8BbNC08_9B11-52" value="*" style="edgeLabel;html=1;align=center;verticalAlign=middle;resizable=0;points=[];" parent="5Vj4jenH8BbNC08_9B11-51" vertex="1" connectable="0">
          <mxGeometry x="-0.8728" relative="1" as="geometry">
            <mxPoint x="11" y="-9" as="offset" />
          </mxGeometry>
        </mxCell>
        <mxCell id="KIsLZSZWqToQ8BmbdBa2-0" value="1" style="edgeLabel;html=1;align=center;verticalAlign=middle;resizable=0;points=[];" parent="5Vj4jenH8BbNC08_9B11-51" vertex="1" connectable="0">
          <mxGeometry x="0.7463" y="-2" relative="1" as="geometry">
            <mxPoint x="-6" y="-7" as="offset" />
          </mxGeometry>
        </mxCell>
        <mxCell id="5Vj4jenH8BbNC08_9B11-70" value="" style="endArrow=diamondThin;endFill=1;endSize=24;html=1;" parent="WIyWlLk6GJQsqaUBKTNV-1" source="5Vj4jenH8BbNC08_9B11-12" target="Vc3Eoi6ETg7o6c7sWArZ-37" edge="1">
          <mxGeometry width="160" relative="1" as="geometry">
            <mxPoint x="750" y="648" as="sourcePoint" />
            <mxPoint x="750" y="576" as="targetPoint" />
          </mxGeometry>
        </mxCell>
        <mxCell id="rqP9fq4yDlE11nNga9YV-0" value="Produkt" style="swimlane;fontStyle=0;childLayout=stackLayout;horizontal=1;startSize=26;fillColor=none;horizontalStack=0;resizeParent=1;resizeParentMax=0;resizeLast=0;collapsible=1;marginBottom=0;" parent="WIyWlLk6GJQsqaUBKTNV-1" vertex="1">
          <mxGeometry x="-800" y="76" width="140" height="78" as="geometry" />
        </mxCell>
        <mxCell id="rqP9fq4yDlE11nNga9YV-1" value="+wersja [1..1]" style="text;strokeColor=none;fillColor=none;align=left;verticalAlign=top;spacingLeft=4;spacingRight=4;overflow=hidden;rotatable=0;points=[[0,0.5],[1,0.5]];portConstraint=eastwest;" parent="rqP9fq4yDlE11nNga9YV-0" vertex="1">
          <mxGeometry y="26" width="140" height="26" as="geometry" />
        </mxCell>
        <mxCell id="TgG3yo3TImJw_ULpONhB-1" value="+nazwa [1..1]" style="text;strokeColor=none;fillColor=none;align=left;verticalAlign=top;spacingLeft=4;spacingRight=4;overflow=hidden;rotatable=0;points=[[0,0.5],[1,0.5]];portConstraint=eastwest;" parent="rqP9fq4yDlE11nNga9YV-0" vertex="1">
          <mxGeometry y="52" width="140" height="26" as="geometry" />
        </mxCell>
        <mxCell id="TgG3yo3TImJw_ULpONhB-2" value="Recenzja" style="swimlane;fontStyle=0;childLayout=stackLayout;horizontal=1;startSize=26;fillColor=none;horizontalStack=0;resizeParent=1;resizeParentMax=0;resizeLast=0;collapsible=1;marginBottom=0;" parent="WIyWlLk6GJQsqaUBKTNV-1" vertex="1">
          <mxGeometry x="-40" y="722" width="140" height="104" as="geometry" />
        </mxCell>
        <mxCell id="TgG3yo3TImJw_ULpONhB-4" value="+ocena [1..1]" style="text;strokeColor=none;fillColor=none;align=left;verticalAlign=top;spacingLeft=4;spacingRight=4;overflow=hidden;rotatable=0;points=[[0,0.5],[1,0.5]];portConstraint=eastwest;" parent="TgG3yo3TImJw_ULpONhB-2" vertex="1">
          <mxGeometry y="26" width="140" height="26" as="geometry" />
        </mxCell>
        <mxCell id="TgG3yo3TImJw_ULpONhB-7" value="+data [1..1]" style="text;strokeColor=none;fillColor=none;align=left;verticalAlign=top;spacingLeft=4;spacingRight=4;overflow=hidden;rotatable=0;points=[[0,0.5],[1,0.5]];portConstraint=eastwest;" parent="TgG3yo3TImJw_ULpONhB-2" vertex="1">
          <mxGeometry y="52" width="140" height="26" as="geometry" />
        </mxCell>
        <mxCell id="TgG3yo3TImJw_ULpONhB-12" value="+aktualna [1..1]" style="text;strokeColor=none;fillColor=none;align=left;verticalAlign=top;spacingLeft=4;spacingRight=4;overflow=hidden;rotatable=0;points=[[0,0.5],[1,0.5]];portConstraint=eastwest;" parent="TgG3yo3TImJw_ULpONhB-2" vertex="1">
          <mxGeometry y="78" width="140" height="26" as="geometry" />
        </mxCell>
        <mxCell id="Vc3Eoi6ETg7o6c7sWArZ-0" value="" style="endArrow=none;html=1;edgeStyle=orthogonalEdgeStyle;" parent="WIyWlLk6GJQsqaUBKTNV-1" source="rqP9fq4yDlE11nNga9YV-0" target="rUIHVcRXvthAcP_0r2kh-1" edge="1">
          <mxGeometry relative="1" as="geometry">
            <mxPoint x="-700" y="366" as="sourcePoint" />
            <mxPoint x="-540" y="366" as="targetPoint" />
          </mxGeometry>
        </mxCell>
        <mxCell id="Vc3Eoi6ETg7o6c7sWArZ-1" value="1" style="edgeLabel;resizable=0;html=1;align=left;verticalAlign=bottom;" parent="Vc3Eoi6ETg7o6c7sWArZ-0" connectable="0" vertex="1">
          <mxGeometry x="-1" relative="1" as="geometry">
            <mxPoint x="10" as="offset" />
          </mxGeometry>
        </mxCell>
        <mxCell id="Vc3Eoi6ETg7o6c7sWArZ-2" value="*" style="edgeLabel;resizable=0;html=1;align=right;verticalAlign=bottom;" parent="Vc3Eoi6ETg7o6c7sWArZ-0" connectable="0" vertex="1">
          <mxGeometry x="1" relative="1" as="geometry">
            <mxPoint x="-10" as="offset" />
          </mxGeometry>
        </mxCell>
        <mxCell id="Vc3Eoi6ETg7o6c7sWArZ-6" value="Tester" style="swimlane;fontStyle=0;childLayout=stackLayout;horizontal=1;startSize=26;fillColor=none;horizontalStack=0;resizeParent=1;resizeParentMax=0;resizeLast=0;collapsible=1;marginBottom=0;" parent="WIyWlLk6GJQsqaUBKTNV-1" vertex="1">
          <mxGeometry x="-290" y="603" width="140" height="52" as="geometry" />
        </mxCell>
        <mxCell id="Vc3Eoi6ETg7o6c7sWArZ-7" value="+" style="text;strokeColor=none;fillColor=none;align=left;verticalAlign=top;spacingLeft=4;spacingRight=4;overflow=hidden;rotatable=0;points=[[0,0.5],[1,0.5]];portConstraint=eastwest;" parent="Vc3Eoi6ETg7o6c7sWArZ-6" vertex="1">
          <mxGeometry y="26" width="140" height="26" as="geometry" />
        </mxCell>
        <mxCell id="Vc3Eoi6ETg7o6c7sWArZ-3" value="" style="endArrow=diamondThin;endFill=1;endSize=24;html=1;edgeStyle=orthogonalEdgeStyle;" parent="WIyWlLk6GJQsqaUBKTNV-1" source="rUIHVcRXvthAcP_0r2kh-5" target="rUIHVcRXvthAcP_0r2kh-1" edge="1">
          <mxGeometry width="160" relative="1" as="geometry">
            <mxPoint x="-498" y="246" as="sourcePoint" />
            <mxPoint x="-330" y="246" as="targetPoint" />
          </mxGeometry>
        </mxCell>
        <mxCell id="Vc3Eoi6ETg7o6c7sWArZ-4" value="1" style="edgeLabel;html=1;align=center;verticalAlign=middle;resizable=0;points=[];" parent="Vc3Eoi6ETg7o6c7sWArZ-3" vertex="1" connectable="0">
          <mxGeometry x="0.8196" y="3" relative="1" as="geometry">
            <mxPoint x="12" y="-18" as="offset" />
          </mxGeometry>
        </mxCell>
        <mxCell id="Vc3Eoi6ETg7o6c7sWArZ-5" value="*" style="edgeLabel;html=1;align=center;verticalAlign=middle;resizable=0;points=[];" parent="Vc3Eoi6ETg7o6c7sWArZ-3" vertex="1" connectable="0">
          <mxGeometry x="-0.8946" y="-1" relative="1" as="geometry">
            <mxPoint x="-11" y="-11" as="offset" />
          </mxGeometry>
        </mxCell>
        <mxCell id="Vc3Eoi6ETg7o6c7sWArZ-16" value="Użytkownik zalogowany" style="swimlane;fontStyle=0;childLayout=stackLayout;horizontal=1;startSize=26;fillColor=none;horizontalStack=0;resizeParent=1;resizeParentMax=0;resizeLast=0;collapsible=1;marginBottom=0;" parent="WIyWlLk6GJQsqaUBKTNV-1" vertex="1">
          <mxGeometry x="-290" y="900" width="140" height="52" as="geometry" />
        </mxCell>
        <mxCell id="Vc3Eoi6ETg7o6c7sWArZ-17" value="+data założenie konta" style="text;strokeColor=none;fillColor=none;align=left;verticalAlign=top;spacingLeft=4;spacingRight=4;overflow=hidden;rotatable=0;points=[[0,0.5],[1,0.5]];portConstraint=eastwest;" parent="Vc3Eoi6ETg7o6c7sWArZ-16" vertex="1">
          <mxGeometry y="26" width="140" height="26" as="geometry" />
        </mxCell>
        <mxCell id="Vc3Eoi6ETg7o6c7sWArZ-18" value="Extends" style="endArrow=block;endSize=16;endFill=0;html=1;edgeStyle=orthogonalEdgeStyle;" parent="WIyWlLk6GJQsqaUBKTNV-1" source="Vc3Eoi6ETg7o6c7sWArZ-6" target="Vc3Eoi6ETg7o6c7sWArZ-16" edge="1">
          <mxGeometry width="160" relative="1" as="geometry">
            <mxPoint x="-780" y="516" as="sourcePoint" />
            <mxPoint x="-620" y="516" as="targetPoint" />
          </mxGeometry>
        </mxCell>
        <mxCell id="Vc3Eoi6ETg7o6c7sWArZ-19" value="Project Manager" style="swimlane;fontStyle=0;childLayout=stackLayout;horizontal=1;startSize=26;fillColor=none;horizontalStack=0;resizeParent=1;resizeParentMax=0;resizeLast=0;collapsible=1;marginBottom=0;" parent="WIyWlLk6GJQsqaUBKTNV-1" vertex="1">
          <mxGeometry x="-290" y="1050" width="140" height="52" as="geometry" />
        </mxCell>
        <mxCell id="Vc3Eoi6ETg7o6c7sWArZ-20" value="+" style="text;strokeColor=none;fillColor=none;align=left;verticalAlign=top;spacingLeft=4;spacingRight=4;overflow=hidden;rotatable=0;points=[[0,0.5],[1,0.5]];portConstraint=eastwest;" parent="Vc3Eoi6ETg7o6c7sWArZ-19" vertex="1">
          <mxGeometry y="26" width="140" height="26" as="geometry" />
        </mxCell>
        <mxCell id="Vc3Eoi6ETg7o6c7sWArZ-21" value="Deweloper" style="swimlane;fontStyle=0;childLayout=stackLayout;horizontal=1;startSize=26;fillColor=none;horizontalStack=0;resizeParent=1;resizeParentMax=0;resizeLast=0;collapsible=1;marginBottom=0;" parent="WIyWlLk6GJQsqaUBKTNV-1" vertex="1">
          <mxGeometry x="195" y="900" width="140" height="52" as="geometry" />
        </mxCell>
        <mxCell id="Vc3Eoi6ETg7o6c7sWArZ-22" value="+" style="text;strokeColor=none;fillColor=none;align=left;verticalAlign=top;spacingLeft=4;spacingRight=4;overflow=hidden;rotatable=0;points=[[0,0.5],[1,0.5]];portConstraint=eastwest;" parent="Vc3Eoi6ETg7o6c7sWArZ-21" vertex="1">
          <mxGeometry y="26" width="140" height="26" as="geometry" />
        </mxCell>
        <mxCell id="Vc3Eoi6ETg7o6c7sWArZ-23" value="Extends" style="endArrow=block;endSize=16;endFill=0;html=1;edgeStyle=orthogonalEdgeStyle;" parent="WIyWlLk6GJQsqaUBKTNV-1" source="Vc3Eoi6ETg7o6c7sWArZ-19" target="Vc3Eoi6ETg7o6c7sWArZ-16" edge="1">
          <mxGeometry width="160" relative="1" as="geometry">
            <mxPoint x="-489.9999999999998" y="618" as="sourcePoint" />
            <mxPoint x="-489.9999999999998" y="766" as="targetPoint" />
          </mxGeometry>
        </mxCell>
        <mxCell id="Vc3Eoi6ETg7o6c7sWArZ-24" value="Extends" style="endArrow=block;endSize=16;endFill=0;html=1;edgeStyle=orthogonalEdgeStyle;" parent="WIyWlLk6GJQsqaUBKTNV-1" source="Vc3Eoi6ETg7o6c7sWArZ-21" target="Vc3Eoi6ETg7o6c7sWArZ-16" edge="1">
          <mxGeometry width="160" relative="1" as="geometry">
            <mxPoint x="-490" y="976" as="sourcePoint" />
            <mxPoint x="-490" y="818" as="targetPoint" />
          </mxGeometry>
        </mxCell>
        <mxCell id="Vc3Eoi6ETg7o6c7sWArZ-25" value="" style="endArrow=none;html=1;edgeStyle=orthogonalEdgeStyle;" parent="WIyWlLk6GJQsqaUBKTNV-1" source="Vc3Eoi6ETg7o6c7sWArZ-21" target="Vc3Eoi6ETg7o6c7sWArZ-52" edge="1">
          <mxGeometry relative="1" as="geometry">
            <mxPoint x="-130" y="1064" as="sourcePoint" />
            <mxPoint x="-110" y="716" as="targetPoint" />
          </mxGeometry>
        </mxCell>
        <mxCell id="Vc3Eoi6ETg7o6c7sWArZ-26" value="1" style="edgeLabel;resizable=0;html=1;align=left;verticalAlign=bottom;" parent="Vc3Eoi6ETg7o6c7sWArZ-25" connectable="0" vertex="1">
          <mxGeometry x="-1" relative="1" as="geometry">
            <mxPoint x="-20" as="offset" />
          </mxGeometry>
        </mxCell>
        <mxCell id="Vc3Eoi6ETg7o6c7sWArZ-27" value="*" style="edgeLabel;resizable=0;html=1;align=right;verticalAlign=bottom;" parent="Vc3Eoi6ETg7o6c7sWArZ-25" connectable="0" vertex="1">
          <mxGeometry x="1" relative="1" as="geometry">
            <mxPoint x="-10" y="20" as="offset" />
          </mxGeometry>
        </mxCell>
        <mxCell id="Vc3Eoi6ETg7o6c7sWArZ-31" value="" style="endArrow=none;html=1;edgeStyle=orthogonalEdgeStyle;" parent="WIyWlLk6GJQsqaUBKTNV-1" source="Vc3Eoi6ETg7o6c7sWArZ-48" target="rUIHVcRXvthAcP_0r2kh-13" edge="1">
          <mxGeometry relative="1" as="geometry">
            <mxPoint x="-130" y="226" as="sourcePoint" />
            <mxPoint x="80" y="226" as="targetPoint" />
            <Array as="points">
              <mxPoint x="-10" y="236" />
              <mxPoint x="100" y="236" />
            </Array>
          </mxGeometry>
        </mxCell>
        <mxCell id="Vc3Eoi6ETg7o6c7sWArZ-32" value="1" style="edgeLabel;resizable=0;html=1;align=left;verticalAlign=bottom;" parent="Vc3Eoi6ETg7o6c7sWArZ-31" connectable="0" vertex="1">
          <mxGeometry x="-1" relative="1" as="geometry">
            <mxPoint x="-20" as="offset" />
          </mxGeometry>
        </mxCell>
        <mxCell id="Vc3Eoi6ETg7o6c7sWArZ-33" value="*" style="edgeLabel;resizable=0;html=1;align=right;verticalAlign=bottom;" parent="Vc3Eoi6ETg7o6c7sWArZ-31" connectable="0" vertex="1">
          <mxGeometry x="1" relative="1" as="geometry">
            <mxPoint x="-10" y="26" as="offset" />
          </mxGeometry>
        </mxCell>
        <mxCell id="Vc3Eoi6ETg7o6c7sWArZ-34" value="" style="endArrow=none;html=1;edgeStyle=orthogonalEdgeStyle;" parent="WIyWlLk6GJQsqaUBKTNV-1" source="Vc3Eoi6ETg7o6c7sWArZ-48" target="Vc3Eoi6ETg7o6c7sWArZ-37" edge="1">
          <mxGeometry relative="1" as="geometry">
            <mxPoint x="125" y="458" as="sourcePoint" />
            <mxPoint x="125" y="352" as="targetPoint" />
          </mxGeometry>
        </mxCell>
        <mxCell id="Vc3Eoi6ETg7o6c7sWArZ-35" value="1" style="edgeLabel;resizable=0;html=1;align=left;verticalAlign=bottom;" parent="Vc3Eoi6ETg7o6c7sWArZ-34" connectable="0" vertex="1">
          <mxGeometry x="-1" relative="1" as="geometry">
            <mxPoint x="10" y="1" as="offset" />
          </mxGeometry>
        </mxCell>
        <mxCell id="Vc3Eoi6ETg7o6c7sWArZ-36" value="*" style="edgeLabel;resizable=0;html=1;align=right;verticalAlign=bottom;" parent="Vc3Eoi6ETg7o6c7sWArZ-34" connectable="0" vertex="1">
          <mxGeometry x="1" relative="1" as="geometry">
            <mxPoint x="-10" y="1" as="offset" />
          </mxGeometry>
        </mxCell>
        <mxCell id="Vc3Eoi6ETg7o6c7sWArZ-37" value="Procedura testowa" style="swimlane;fontStyle=0;childLayout=stackLayout;horizontal=1;startSize=26;fillColor=none;horizontalStack=0;resizeParent=1;resizeParentMax=0;resizeLast=0;collapsible=1;marginBottom=0;" parent="WIyWlLk6GJQsqaUBKTNV-1" vertex="1">
          <mxGeometry x="200" y="299" width="140" height="52" as="geometry" />
        </mxCell>
        <mxCell id="Vc3Eoi6ETg7o6c7sWArZ-38" value="+oczekiwany efekt [1..1]" style="text;strokeColor=none;fillColor=none;align=left;verticalAlign=top;spacingLeft=4;spacingRight=4;overflow=hidden;rotatable=0;points=[[0,0.5],[1,0.5]];portConstraint=eastwest;" parent="Vc3Eoi6ETg7o6c7sWArZ-37" vertex="1">
          <mxGeometry y="26" width="140" height="26" as="geometry" />
        </mxCell>
        <mxCell id="Vc3Eoi6ETg7o6c7sWArZ-39" value="" style="endArrow=none;html=1;edgeStyle=orthogonalEdgeStyle;" parent="WIyWlLk6GJQsqaUBKTNV-1" source="Vc3Eoi6ETg7o6c7sWArZ-37" target="rUIHVcRXvthAcP_0r2kh-13" edge="1">
          <mxGeometry relative="1" as="geometry">
            <mxPoint x="-35" y="296" as="sourcePoint" />
            <mxPoint x="140" y="190" as="targetPoint" />
            <Array as="points">
              <mxPoint x="270" y="236" />
              <mxPoint x="170" y="236" />
            </Array>
          </mxGeometry>
        </mxCell>
        <mxCell id="Vc3Eoi6ETg7o6c7sWArZ-40" value="1" style="edgeLabel;resizable=0;html=1;align=left;verticalAlign=bottom;" parent="Vc3Eoi6ETg7o6c7sWArZ-39" connectable="0" vertex="1">
          <mxGeometry x="-1" relative="1" as="geometry">
            <mxPoint x="-20" as="offset" />
          </mxGeometry>
        </mxCell>
        <mxCell id="Vc3Eoi6ETg7o6c7sWArZ-41" value="*" style="edgeLabel;resizable=0;html=1;align=right;verticalAlign=bottom;" parent="Vc3Eoi6ETg7o6c7sWArZ-39" connectable="0" vertex="1">
          <mxGeometry x="1" relative="1" as="geometry">
            <mxPoint x="-10" y="26" as="offset" />
          </mxGeometry>
        </mxCell>
        <mxCell id="Vc3Eoi6ETg7o6c7sWArZ-48" value="Przypadek testowy" style="swimlane;fontStyle=0;childLayout=stackLayout;horizontal=1;startSize=26;fillColor=none;horizontalStack=0;resizeParent=1;resizeParentMax=0;resizeLast=0;collapsible=1;marginBottom=0;" parent="WIyWlLk6GJQsqaUBKTNV-1" vertex="1">
          <mxGeometry x="-80" y="286" width="140" height="78" as="geometry" />
        </mxCell>
        <mxCell id="Vc3Eoi6ETg7o6c7sWArZ-49" value="+warunki wstępne [1..1]" style="text;strokeColor=none;fillColor=none;align=left;verticalAlign=top;spacingLeft=4;spacingRight=4;overflow=hidden;rotatable=0;points=[[0,0.5],[1,0.5]];portConstraint=eastwest;" parent="Vc3Eoi6ETg7o6c7sWArZ-48" vertex="1">
          <mxGeometry y="26" width="140" height="26" as="geometry" />
        </mxCell>
        <mxCell id="Vc3Eoi6ETg7o6c7sWArZ-50" value="+dane wstępne [1..1]" style="text;strokeColor=none;fillColor=none;align=left;verticalAlign=top;spacingLeft=4;spacingRight=4;overflow=hidden;rotatable=0;points=[[0,0.5],[1,0.5]];portConstraint=eastwest;" parent="Vc3Eoi6ETg7o6c7sWArZ-48" vertex="1">
          <mxGeometry y="52" width="140" height="26" as="geometry" />
        </mxCell>
        <mxCell id="Vc3Eoi6ETg7o6c7sWArZ-52" value="Błąd" style="swimlane;fontStyle=0;childLayout=stackLayout;horizontal=1;startSize=26;fillColor=none;horizontalStack=0;resizeParent=1;resizeParentMax=0;resizeLast=0;collapsible=1;marginBottom=0;" parent="WIyWlLk6GJQsqaUBKTNV-1" vertex="1">
          <mxGeometry x="190" y="566" width="150" height="286" as="geometry" />
        </mxCell>
        <mxCell id="Vc3Eoi6ETg7o6c7sWArZ-60" value="+kod [1..1]" style="text;strokeColor=none;fillColor=none;align=left;verticalAlign=top;spacingLeft=4;spacingRight=4;overflow=hidden;rotatable=0;points=[[0,0.5],[1,0.5]];portConstraint=eastwest;" parent="Vc3Eoi6ETg7o6c7sWArZ-52" vertex="1">
          <mxGeometry y="26" width="150" height="26" as="geometry" />
        </mxCell>
        <mxCell id="Vc3Eoi6ETg7o6c7sWArZ-59" value="+nazwa [1..1]" style="text;strokeColor=none;fillColor=none;align=left;verticalAlign=top;spacingLeft=4;spacingRight=4;overflow=hidden;rotatable=0;points=[[0,0.5],[1,0.5]];portConstraint=eastwest;" parent="Vc3Eoi6ETg7o6c7sWArZ-52" vertex="1">
          <mxGeometry y="52" width="150" height="26" as="geometry" />
        </mxCell>
        <mxCell id="Vc3Eoi6ETg7o6c7sWArZ-61" value="+data zgłoszenia [1..1]" style="text;strokeColor=none;fillColor=none;align=left;verticalAlign=top;spacingLeft=4;spacingRight=4;overflow=hidden;rotatable=0;points=[[0,0.5],[1,0.5]];portConstraint=eastwest;" parent="Vc3Eoi6ETg7o6c7sWArZ-52" vertex="1">
          <mxGeometry y="78" width="150" height="26" as="geometry" />
        </mxCell>
        <mxCell id="Vc3Eoi6ETg7o6c7sWArZ-58" value="+opis [0..1]" style="text;strokeColor=none;fillColor=none;align=left;verticalAlign=top;spacingLeft=4;spacingRight=4;overflow=hidden;rotatable=0;points=[[0,0.5],[1,0.5]];portConstraint=eastwest;" parent="Vc3Eoi6ETg7o6c7sWArZ-52" vertex="1">
          <mxGeometry y="104" width="150" height="26" as="geometry" />
        </mxCell>
        <mxCell id="Vc3Eoi6ETg7o6c7sWArZ-108" value="+deadline [0..1]" style="text;strokeColor=none;fillColor=none;align=left;verticalAlign=top;spacingLeft=4;spacingRight=4;overflow=hidden;rotatable=0;points=[[0,0.5],[1,0.5]];portConstraint=eastwest;" parent="Vc3Eoi6ETg7o6c7sWArZ-52" vertex="1">
          <mxGeometry y="130" width="150" height="26" as="geometry" />
        </mxCell>
        <mxCell id="Vc3Eoi6ETg7o6c7sWArZ-54" value="+wym liczba recenzji [0..1]" style="text;strokeColor=none;fillColor=none;align=left;verticalAlign=top;spacingLeft=4;spacingRight=4;overflow=hidden;rotatable=0;points=[[0,0.5],[1,0.5]];portConstraint=eastwest;" parent="Vc3Eoi6ETg7o6c7sWArZ-52" vertex="1">
          <mxGeometry y="156" width="150" height="26" as="geometry" />
        </mxCell>
        <mxCell id="Vc3Eoi6ETg7o6c7sWArZ-107" value="+data zakończenia [0..1]" style="text;strokeColor=none;fillColor=none;align=left;verticalAlign=top;spacingLeft=4;spacingRight=4;overflow=hidden;rotatable=0;points=[[0,0.5],[1,0.5]];portConstraint=eastwest;" parent="Vc3Eoi6ETg7o6c7sWArZ-52" vertex="1">
          <mxGeometry y="182" width="150" height="26" as="geometry" />
        </mxCell>
        <mxCell id="UE96xgW0tEFk1YT_2X4H-1" value="+kategoria [1..1]" style="text;strokeColor=none;fillColor=none;align=left;verticalAlign=top;spacingLeft=4;spacingRight=4;overflow=hidden;rotatable=0;points=[[0,0.5],[1,0.5]];portConstraint=eastwest;" vertex="1" parent="Vc3Eoi6ETg7o6c7sWArZ-52">
          <mxGeometry y="208" width="150" height="26" as="geometry" />
        </mxCell>
        <mxCell id="UE96xgW0tEFk1YT_2X4H-2" value="/liczba_recenzji (all)" style="text;strokeColor=none;fillColor=none;align=left;verticalAlign=top;spacingLeft=4;spacingRight=4;overflow=hidden;rotatable=0;points=[[0,0.5],[1,0.5]];portConstraint=eastwest;" vertex="1" parent="Vc3Eoi6ETg7o6c7sWArZ-52">
          <mxGeometry y="234" width="150" height="26" as="geometry" />
        </mxCell>
        <mxCell id="UE96xgW0tEFk1YT_2X4H-3" value="/liczba_recenzji_oblanych (failed)" style="text;strokeColor=none;fillColor=none;align=left;verticalAlign=top;spacingLeft=4;spacingRight=4;overflow=hidden;rotatable=0;points=[[0,0.5],[1,0.5]];portConstraint=eastwest;" vertex="1" parent="Vc3Eoi6ETg7o6c7sWArZ-52">
          <mxGeometry y="260" width="150" height="26" as="geometry" />
        </mxCell>
        <mxCell id="Vc3Eoi6ETg7o6c7sWArZ-63" value="" style="endArrow=none;html=1;edgeStyle=orthogonalEdgeStyle;" parent="WIyWlLk6GJQsqaUBKTNV-1" source="Vc3Eoi6ETg7o6c7sWArZ-52" target="Vc3Eoi6ETg7o6c7sWArZ-81" edge="1">
          <mxGeometry relative="1" as="geometry">
            <mxPoint x="650" y="554.9999999999998" as="sourcePoint" />
            <mxPoint x="550" y="436" as="targetPoint" />
            <Array as="points">
              <mxPoint x="390" y="580" />
              <mxPoint x="390" y="160" />
            </Array>
          </mxGeometry>
        </mxCell>
        <mxCell id="Vc3Eoi6ETg7o6c7sWArZ-64" value="1" style="edgeLabel;resizable=0;html=1;align=left;verticalAlign=bottom;" parent="Vc3Eoi6ETg7o6c7sWArZ-63" connectable="0" vertex="1">
          <mxGeometry x="-1" relative="1" as="geometry">
            <mxPoint x="10" y="-2" as="offset" />
          </mxGeometry>
        </mxCell>
        <mxCell id="Vc3Eoi6ETg7o6c7sWArZ-65" value="*" style="edgeLabel;resizable=0;html=1;align=right;verticalAlign=bottom;" parent="Vc3Eoi6ETg7o6c7sWArZ-63" connectable="0" vertex="1">
          <mxGeometry x="1" relative="1" as="geometry">
            <mxPoint x="-10" y="-2" as="offset" />
          </mxGeometry>
        </mxCell>
        <mxCell id="Vc3Eoi6ETg7o6c7sWArZ-66" value="" style="endArrow=none;html=1;edgeStyle=orthogonalEdgeStyle;" parent="WIyWlLk6GJQsqaUBKTNV-1" source="5Vj4jenH8BbNC08_9B11-12" target="Vc3Eoi6ETg7o6c7sWArZ-52" edge="1">
          <mxGeometry relative="1" as="geometry">
            <mxPoint x="120" y="515.71" as="sourcePoint" />
            <mxPoint x="220" y="515.71" as="targetPoint" />
            <Array as="points">
              <mxPoint x="270" y="500" />
              <mxPoint x="270" y="500" />
            </Array>
          </mxGeometry>
        </mxCell>
        <mxCell id="Vc3Eoi6ETg7o6c7sWArZ-67" value="1" style="edgeLabel;resizable=0;html=1;align=left;verticalAlign=bottom;" parent="Vc3Eoi6ETg7o6c7sWArZ-66" connectable="0" vertex="1">
          <mxGeometry x="-1" relative="1" as="geometry">
            <mxPoint x="-20" y="20" as="offset" />
          </mxGeometry>
        </mxCell>
        <mxCell id="Vc3Eoi6ETg7o6c7sWArZ-68" value="*" style="edgeLabel;resizable=0;html=1;align=right;verticalAlign=bottom;" parent="Vc3Eoi6ETg7o6c7sWArZ-66" connectable="0" vertex="1">
          <mxGeometry x="1" relative="1" as="geometry">
            <mxPoint x="10" y="-2" as="offset" />
          </mxGeometry>
        </mxCell>
        <mxCell id="Vc3Eoi6ETg7o6c7sWArZ-69" value="" style="endArrow=none;html=1;edgeStyle=orthogonalEdgeStyle;" parent="WIyWlLk6GJQsqaUBKTNV-1" source="Vc3Eoi6ETg7o6c7sWArZ-52" target="TgG3yo3TImJw_ULpONhB-2" edge="1">
          <mxGeometry relative="1" as="geometry">
            <mxPoint x="-190" y="716" as="sourcePoint" />
            <mxPoint x="-140" y="786" as="targetPoint" />
            <Array as="points">
              <mxPoint x="80" y="630" />
            </Array>
          </mxGeometry>
        </mxCell>
        <mxCell id="Vc3Eoi6ETg7o6c7sWArZ-70" value="1" style="edgeLabel;resizable=0;html=1;align=left;verticalAlign=bottom;" parent="Vc3Eoi6ETg7o6c7sWArZ-69" connectable="0" vertex="1">
          <mxGeometry x="-1" relative="1" as="geometry">
            <mxPoint x="-20" y="-2" as="offset" />
          </mxGeometry>
        </mxCell>
        <mxCell id="Vc3Eoi6ETg7o6c7sWArZ-71" value="*" style="edgeLabel;resizable=0;html=1;align=right;verticalAlign=bottom;" parent="Vc3Eoi6ETg7o6c7sWArZ-69" connectable="0" vertex="1">
          <mxGeometry x="1" relative="1" as="geometry">
            <mxPoint x="-10" y="-2" as="offset" />
          </mxGeometry>
        </mxCell>
        <mxCell id="Vc3Eoi6ETg7o6c7sWArZ-76" value="" style="endArrow=none;html=1;edgeStyle=orthogonalEdgeStyle;" parent="WIyWlLk6GJQsqaUBKTNV-1" source="Vc3Eoi6ETg7o6c7sWArZ-6" target="TgG3yo3TImJw_ULpONhB-2" edge="1">
          <mxGeometry relative="1" as="geometry">
            <mxPoint x="-190" y="526" as="sourcePoint" />
            <mxPoint x="-220" y="916" as="targetPoint" />
            <Array as="points">
              <mxPoint x="-20" y="629" />
            </Array>
          </mxGeometry>
        </mxCell>
        <mxCell id="Vc3Eoi6ETg7o6c7sWArZ-77" value="1" style="edgeLabel;resizable=0;html=1;align=left;verticalAlign=bottom;" parent="Vc3Eoi6ETg7o6c7sWArZ-76" connectable="0" vertex="1">
          <mxGeometry x="-1" relative="1" as="geometry">
            <mxPoint x="10" y="-4" as="offset" />
          </mxGeometry>
        </mxCell>
        <mxCell id="Vc3Eoi6ETg7o6c7sWArZ-78" value="*" style="edgeLabel;resizable=0;html=1;align=right;verticalAlign=bottom;" parent="Vc3Eoi6ETg7o6c7sWArZ-76" connectable="0" vertex="1">
          <mxGeometry x="1" relative="1" as="geometry">
            <mxPoint x="-10" y="-2" as="offset" />
          </mxGeometry>
        </mxCell>
        <mxCell id="Vc3Eoi6ETg7o6c7sWArZ-81" value="Załącznik" style="swimlane;fontStyle=0;childLayout=stackLayout;horizontal=1;startSize=26;fillColor=none;horizontalStack=0;resizeParent=1;resizeParentMax=0;resizeLast=0;collapsible=1;marginBottom=0;" parent="WIyWlLk6GJQsqaUBKTNV-1" vertex="1">
          <mxGeometry x="470" y="141" width="140" height="78" as="geometry" />
        </mxCell>
        <mxCell id="Vc3Eoi6ETg7o6c7sWArZ-82" value="+nazwa [1..1]" style="text;strokeColor=none;fillColor=none;align=left;verticalAlign=top;spacingLeft=4;spacingRight=4;overflow=hidden;rotatable=0;points=[[0,0.5],[1,0.5]];portConstraint=eastwest;" parent="Vc3Eoi6ETg7o6c7sWArZ-81" vertex="1">
          <mxGeometry y="26" width="140" height="26" as="geometry" />
        </mxCell>
        <mxCell id="Vc3Eoi6ETg7o6c7sWArZ-83" value="+rozszerzenie [1..1]" style="text;strokeColor=none;fillColor=none;align=left;verticalAlign=top;spacingLeft=4;spacingRight=4;overflow=hidden;rotatable=0;points=[[0,0.5],[1,0.5]];portConstraint=eastwest;" parent="Vc3Eoi6ETg7o6c7sWArZ-81" vertex="1">
          <mxGeometry y="52" width="140" height="26" as="geometry" />
        </mxCell>
        <mxCell id="Vc3Eoi6ETg7o6c7sWArZ-85" value="«enumeration»&#xa;Stan" style="swimlane;fontStyle=0;childLayout=stackLayout;horizontal=1;startSize=50;fillColor=none;horizontalStack=0;resizeParent=1;resizeParentMax=0;resizeLast=0;collapsible=1;marginBottom=0;" parent="WIyWlLk6GJQsqaUBKTNV-1" vertex="1">
          <mxGeometry x="470" y="251" width="140" height="232" as="geometry" />
        </mxCell>
        <mxCell id="Vc3Eoi6ETg7o6c7sWArZ-86" value="Nowy" style="text;strokeColor=none;fillColor=none;align=left;verticalAlign=top;spacingLeft=4;spacingRight=4;overflow=hidden;rotatable=0;points=[[0,0.5],[1,0.5]];portConstraint=eastwest;" parent="Vc3Eoi6ETg7o6c7sWArZ-85" vertex="1">
          <mxGeometry y="50" width="140" height="26" as="geometry" />
        </mxCell>
        <mxCell id="Vc3Eoi6ETg7o6c7sWArZ-113" value="W toku" style="text;strokeColor=none;fillColor=none;align=left;verticalAlign=top;spacingLeft=4;spacingRight=4;overflow=hidden;rotatable=0;points=[[0,0.5],[1,0.5]];portConstraint=eastwest;" parent="Vc3Eoi6ETg7o6c7sWArZ-85" vertex="1">
          <mxGeometry y="76" width="140" height="26" as="geometry" />
        </mxCell>
        <mxCell id="Vc3Eoi6ETg7o6c7sWArZ-114" value="Naprawiony" style="text;strokeColor=none;fillColor=none;align=left;verticalAlign=top;spacingLeft=4;spacingRight=4;overflow=hidden;rotatable=0;points=[[0,0.5],[1,0.5]];portConstraint=eastwest;" parent="Vc3Eoi6ETg7o6c7sWArZ-85" vertex="1">
          <mxGeometry y="102" width="140" height="26" as="geometry" />
        </mxCell>
        <mxCell id="Vc3Eoi6ETg7o6c7sWArZ-115" value="Retest" style="text;strokeColor=none;fillColor=none;align=left;verticalAlign=top;spacingLeft=4;spacingRight=4;overflow=hidden;rotatable=0;points=[[0,0.5],[1,0.5]];portConstraint=eastwest;" parent="Vc3Eoi6ETg7o6c7sWArZ-85" vertex="1">
          <mxGeometry y="128" width="140" height="26" as="geometry" />
        </mxCell>
        <mxCell id="Vc3Eoi6ETg7o6c7sWArZ-116" value="Rozwiązany" style="text;strokeColor=none;fillColor=none;align=left;verticalAlign=top;spacingLeft=4;spacingRight=4;overflow=hidden;rotatable=0;points=[[0,0.5],[1,0.5]];portConstraint=eastwest;" parent="Vc3Eoi6ETg7o6c7sWArZ-85" vertex="1">
          <mxGeometry y="154" width="140" height="26" as="geometry" />
        </mxCell>
        <mxCell id="Vc3Eoi6ETg7o6c7sWArZ-117" value="Niezatwierdzony" style="text;strokeColor=none;fillColor=none;align=left;verticalAlign=top;spacingLeft=4;spacingRight=4;overflow=hidden;rotatable=0;points=[[0,0.5],[1,0.5]];portConstraint=eastwest;" parent="Vc3Eoi6ETg7o6c7sWArZ-85" vertex="1">
          <mxGeometry y="180" width="140" height="26" as="geometry" />
        </mxCell>
        <mxCell id="Vc3Eoi6ETg7o6c7sWArZ-118" value="Odrzucony" style="text;strokeColor=none;fillColor=none;align=left;verticalAlign=top;spacingLeft=4;spacingRight=4;overflow=hidden;rotatable=0;points=[[0,0.5],[1,0.5]];portConstraint=eastwest;" parent="Vc3Eoi6ETg7o6c7sWArZ-85" vertex="1">
          <mxGeometry y="206" width="140" height="26" as="geometry" />
        </mxCell>
        <mxCell id="Vc3Eoi6ETg7o6c7sWArZ-88" value="«enumeration»&#xa;Wpływ" style="swimlane;fontStyle=0;childLayout=stackLayout;horizontal=1;startSize=50;fillColor=none;horizontalStack=0;resizeParent=1;resizeParentMax=0;resizeLast=0;collapsible=1;marginBottom=0;" parent="WIyWlLk6GJQsqaUBKTNV-1" vertex="1">
          <mxGeometry x="470" y="871" width="140" height="128" as="geometry" />
        </mxCell>
        <mxCell id="Vc3Eoi6ETg7o6c7sWArZ-89" value="Wysoki" style="text;strokeColor=none;fillColor=none;align=left;verticalAlign=top;spacingLeft=4;spacingRight=4;overflow=hidden;rotatable=0;points=[[0,0.5],[1,0.5]];portConstraint=eastwest;" parent="Vc3Eoi6ETg7o6c7sWArZ-88" vertex="1">
          <mxGeometry y="50" width="140" height="26" as="geometry" />
        </mxCell>
        <mxCell id="Vc3Eoi6ETg7o6c7sWArZ-111" value="Średni" style="text;strokeColor=none;fillColor=none;align=left;verticalAlign=top;spacingLeft=4;spacingRight=4;overflow=hidden;rotatable=0;points=[[0,0.5],[1,0.5]];portConstraint=eastwest;" parent="Vc3Eoi6ETg7o6c7sWArZ-88" vertex="1">
          <mxGeometry y="76" width="140" height="26" as="geometry" />
        </mxCell>
        <mxCell id="Vc3Eoi6ETg7o6c7sWArZ-112" value="Niski" style="text;strokeColor=none;fillColor=none;align=left;verticalAlign=top;spacingLeft=4;spacingRight=4;overflow=hidden;rotatable=0;points=[[0,0.5],[1,0.5]];portConstraint=eastwest;" parent="Vc3Eoi6ETg7o6c7sWArZ-88" vertex="1">
          <mxGeometry y="102" width="140" height="26" as="geometry" />
        </mxCell>
        <mxCell id="Vc3Eoi6ETg7o6c7sWArZ-90" value="«enumeration»&#xa;Priorytet" style="swimlane;fontStyle=0;childLayout=stackLayout;horizontal=1;startSize=50;fillColor=none;horizontalStack=0;resizeParent=1;resizeParentMax=0;resizeLast=0;collapsible=1;marginBottom=0;" parent="WIyWlLk6GJQsqaUBKTNV-1" vertex="1">
          <mxGeometry x="470" y="1021" width="140" height="128" as="geometry" />
        </mxCell>
        <mxCell id="Vc3Eoi6ETg7o6c7sWArZ-91" value="Wysoki" style="text;strokeColor=none;fillColor=none;align=left;verticalAlign=top;spacingLeft=4;spacingRight=4;overflow=hidden;rotatable=0;points=[[0,0.5],[1,0.5]];portConstraint=eastwest;" parent="Vc3Eoi6ETg7o6c7sWArZ-90" vertex="1">
          <mxGeometry y="50" width="140" height="26" as="geometry" />
        </mxCell>
        <mxCell id="Vc3Eoi6ETg7o6c7sWArZ-109" value="Średni" style="text;strokeColor=none;fillColor=none;align=left;verticalAlign=top;spacingLeft=4;spacingRight=4;overflow=hidden;rotatable=0;points=[[0,0.5],[1,0.5]];portConstraint=eastwest;" parent="Vc3Eoi6ETg7o6c7sWArZ-90" vertex="1">
          <mxGeometry y="76" width="140" height="26" as="geometry" />
        </mxCell>
        <mxCell id="Vc3Eoi6ETg7o6c7sWArZ-110" value="Niski" style="text;strokeColor=none;fillColor=none;align=left;verticalAlign=top;spacingLeft=4;spacingRight=4;overflow=hidden;rotatable=0;points=[[0,0.5],[1,0.5]];portConstraint=eastwest;" parent="Vc3Eoi6ETg7o6c7sWArZ-90" vertex="1">
          <mxGeometry y="102" width="140" height="26" as="geometry" />
        </mxCell>
        <mxCell id="Vc3Eoi6ETg7o6c7sWArZ-92" value="«enumeration»&#xa;Rodzaj" style="swimlane;fontStyle=0;childLayout=stackLayout;horizontal=1;startSize=50;fillColor=none;horizontalStack=0;resizeParent=1;resizeParentMax=0;resizeLast=0;collapsible=1;marginBottom=0;" parent="WIyWlLk6GJQsqaUBKTNV-1" vertex="1">
          <mxGeometry x="470" y="511" width="210" height="336" as="geometry" />
        </mxCell>
        <mxCell id="Vc3Eoi6ETg7o6c7sWArZ-93" value="Funkcyjny" style="text;strokeColor=none;fillColor=none;align=left;verticalAlign=top;spacingLeft=4;spacingRight=4;overflow=hidden;rotatable=0;points=[[0,0.5],[1,0.5]];portConstraint=eastwest;" parent="Vc3Eoi6ETg7o6c7sWArZ-92" vertex="1">
          <mxGeometry y="50" width="210" height="26" as="geometry" />
        </mxCell>
        <mxCell id="Vc3Eoi6ETg7o6c7sWArZ-119" value="Wydajnościowy" style="text;strokeColor=none;fillColor=none;align=left;verticalAlign=top;spacingLeft=4;spacingRight=4;overflow=hidden;rotatable=0;points=[[0,0.5],[1,0.5]];portConstraint=eastwest;" parent="Vc3Eoi6ETg7o6c7sWArZ-92" vertex="1">
          <mxGeometry y="76" width="210" height="26" as="geometry" />
        </mxCell>
        <mxCell id="Vc3Eoi6ETg7o6c7sWArZ-120" value="Użyteczności" style="text;strokeColor=none;fillColor=none;align=left;verticalAlign=top;spacingLeft=4;spacingRight=4;overflow=hidden;rotatable=0;points=[[0,0.5],[1,0.5]];portConstraint=eastwest;" parent="Vc3Eoi6ETg7o6c7sWArZ-92" vertex="1">
          <mxGeometry y="102" width="210" height="26" as="geometry" />
        </mxCell>
        <mxCell id="Vc3Eoi6ETg7o6c7sWArZ-121" value="Kompatybilności" style="text;strokeColor=none;fillColor=none;align=left;verticalAlign=top;spacingLeft=4;spacingRight=4;overflow=hidden;rotatable=0;points=[[0,0.5],[1,0.5]];portConstraint=eastwest;" parent="Vc3Eoi6ETg7o6c7sWArZ-92" vertex="1">
          <mxGeometry y="128" width="210" height="26" as="geometry" />
        </mxCell>
        <mxCell id="Vc3Eoi6ETg7o6c7sWArZ-122" value="Bezpieczeństwa" style="text;strokeColor=none;fillColor=none;align=left;verticalAlign=top;spacingLeft=4;spacingRight=4;overflow=hidden;rotatable=0;points=[[0,0.5],[1,0.5]];portConstraint=eastwest;" parent="Vc3Eoi6ETg7o6c7sWArZ-92" vertex="1">
          <mxGeometry y="154" width="210" height="26" as="geometry" />
        </mxCell>
        <mxCell id="Vc3Eoi6ETg7o6c7sWArZ-123" value="Składniowy" style="text;strokeColor=none;fillColor=none;align=left;verticalAlign=top;spacingLeft=4;spacingRight=4;overflow=hidden;rotatable=0;points=[[0,0.5],[1,0.5]];portConstraint=eastwest;" parent="Vc3Eoi6ETg7o6c7sWArZ-92" vertex="1">
          <mxGeometry y="180" width="210" height="26" as="geometry" />
        </mxCell>
        <mxCell id="Vc3Eoi6ETg7o6c7sWArZ-124" value="Logiczny" style="text;strokeColor=none;fillColor=none;align=left;verticalAlign=top;spacingLeft=4;spacingRight=4;overflow=hidden;rotatable=0;points=[[0,0.5],[1,0.5]];portConstraint=eastwest;" parent="Vc3Eoi6ETg7o6c7sWArZ-92" vertex="1">
          <mxGeometry y="206" width="210" height="26" as="geometry" />
        </mxCell>
        <mxCell id="Vc3Eoi6ETg7o6c7sWArZ-125" value="Na poziomie testów jednostkowych" style="text;strokeColor=none;fillColor=none;align=left;verticalAlign=top;spacingLeft=4;spacingRight=4;overflow=hidden;rotatable=0;points=[[0,0.5],[1,0.5]];portConstraint=eastwest;" parent="Vc3Eoi6ETg7o6c7sWArZ-92" vertex="1">
          <mxGeometry y="232" width="210" height="26" as="geometry" />
        </mxCell>
        <mxCell id="Vc3Eoi6ETg7o6c7sWArZ-126" value="Na poziomie testów integracyjnych" style="text;strokeColor=none;fillColor=none;align=left;verticalAlign=top;spacingLeft=4;spacingRight=4;overflow=hidden;rotatable=0;points=[[0,0.5],[1,0.5]];portConstraint=eastwest;" parent="Vc3Eoi6ETg7o6c7sWArZ-92" vertex="1">
          <mxGeometry y="258" width="210" height="26" as="geometry" />
        </mxCell>
        <mxCell id="Vc3Eoi6ETg7o6c7sWArZ-127" value="Duplikacja kodu" style="text;strokeColor=none;fillColor=none;align=left;verticalAlign=top;spacingLeft=4;spacingRight=4;overflow=hidden;rotatable=0;points=[[0,0.5],[1,0.5]];portConstraint=eastwest;" parent="Vc3Eoi6ETg7o6c7sWArZ-92" vertex="1">
          <mxGeometry y="284" width="210" height="26" as="geometry" />
        </mxCell>
        <mxCell id="Vc3Eoi6ETg7o6c7sWArZ-128" value="Zły typ danych" style="text;strokeColor=none;fillColor=none;align=left;verticalAlign=top;spacingLeft=4;spacingRight=4;overflow=hidden;rotatable=0;points=[[0,0.5],[1,0.5]];portConstraint=eastwest;" parent="Vc3Eoi6ETg7o6c7sWArZ-92" vertex="1">
          <mxGeometry y="310" width="210" height="26" as="geometry" />
        </mxCell>
        <mxCell id="Vc3Eoi6ETg7o6c7sWArZ-95" value="" style="endArrow=none;html=1;edgeStyle=orthogonalEdgeStyle;" parent="WIyWlLk6GJQsqaUBKTNV-1" source="Vc3Eoi6ETg7o6c7sWArZ-85" target="Vc3Eoi6ETg7o6c7sWArZ-52" edge="1">
          <mxGeometry relative="1" as="geometry">
            <mxPoint x="310" y="773.5" as="sourcePoint" />
            <mxPoint x="440" y="773.5" as="targetPoint" />
            <Array as="points">
              <mxPoint x="410" y="280" />
              <mxPoint x="410" y="610" />
            </Array>
          </mxGeometry>
        </mxCell>
        <mxCell id="Vc3Eoi6ETg7o6c7sWArZ-96" value="1" style="edgeLabel;resizable=0;html=1;align=left;verticalAlign=bottom;" parent="Vc3Eoi6ETg7o6c7sWArZ-95" connectable="0" vertex="1">
          <mxGeometry x="-1" relative="1" as="geometry">
            <mxPoint x="-20" y="-2" as="offset" />
          </mxGeometry>
        </mxCell>
        <mxCell id="Vc3Eoi6ETg7o6c7sWArZ-97" value="*" style="edgeLabel;resizable=0;html=1;align=right;verticalAlign=bottom;" parent="Vc3Eoi6ETg7o6c7sWArZ-95" connectable="0" vertex="1">
          <mxGeometry x="1" relative="1" as="geometry">
            <mxPoint x="20" y="-2" as="offset" />
          </mxGeometry>
        </mxCell>
        <mxCell id="Vc3Eoi6ETg7o6c7sWArZ-98" value="" style="endArrow=none;html=1;edgeStyle=orthogonalEdgeStyle;" parent="WIyWlLk6GJQsqaUBKTNV-1" source="Vc3Eoi6ETg7o6c7sWArZ-92" target="Vc3Eoi6ETg7o6c7sWArZ-52" edge="1">
          <mxGeometry relative="1" as="geometry">
            <mxPoint x="460" y="806.0044827586207" as="sourcePoint" />
            <mxPoint x="330" y="760.0044827586207" as="targetPoint" />
            <Array as="points">
              <mxPoint x="440" y="644" />
              <mxPoint x="440" y="644" />
            </Array>
          </mxGeometry>
        </mxCell>
        <mxCell id="Vc3Eoi6ETg7o6c7sWArZ-99" value="1" style="edgeLabel;resizable=0;html=1;align=left;verticalAlign=bottom;" parent="Vc3Eoi6ETg7o6c7sWArZ-98" connectable="0" vertex="1">
          <mxGeometry x="-1" relative="1" as="geometry">
            <mxPoint x="-20" y="-2" as="offset" />
          </mxGeometry>
        </mxCell>
        <mxCell id="Vc3Eoi6ETg7o6c7sWArZ-100" value="*" style="edgeLabel;resizable=0;html=1;align=right;verticalAlign=bottom;" parent="Vc3Eoi6ETg7o6c7sWArZ-98" connectable="0" vertex="1">
          <mxGeometry x="1" relative="1" as="geometry">
            <mxPoint x="20" y="-2" as="offset" />
          </mxGeometry>
        </mxCell>
        <mxCell id="Vc3Eoi6ETg7o6c7sWArZ-101" value="" style="endArrow=none;html=1;edgeStyle=orthogonalEdgeStyle;" parent="WIyWlLk6GJQsqaUBKTNV-1" source="Vc3Eoi6ETg7o6c7sWArZ-88" target="Vc3Eoi6ETg7o6c7sWArZ-52" edge="1">
          <mxGeometry relative="1" as="geometry">
            <mxPoint x="450" y="900.0044827586207" as="sourcePoint" />
            <mxPoint x="320" y="754.0044827586207" as="targetPoint" />
            <Array as="points">
              <mxPoint x="390" y="890" />
              <mxPoint x="390" y="680" />
            </Array>
          </mxGeometry>
        </mxCell>
        <mxCell id="Vc3Eoi6ETg7o6c7sWArZ-102" value="1" style="edgeLabel;resizable=0;html=1;align=left;verticalAlign=bottom;" parent="Vc3Eoi6ETg7o6c7sWArZ-101" connectable="0" vertex="1">
          <mxGeometry x="-1" relative="1" as="geometry">
            <mxPoint x="-20" y="-2" as="offset" />
          </mxGeometry>
        </mxCell>
        <mxCell id="Vc3Eoi6ETg7o6c7sWArZ-103" value="*" style="edgeLabel;resizable=0;html=1;align=right;verticalAlign=bottom;" parent="Vc3Eoi6ETg7o6c7sWArZ-101" connectable="0" vertex="1">
          <mxGeometry x="1" relative="1" as="geometry">
            <mxPoint x="20" y="-2" as="offset" />
          </mxGeometry>
        </mxCell>
        <mxCell id="Vc3Eoi6ETg7o6c7sWArZ-104" value="" style="endArrow=none;html=1;edgeStyle=orthogonalEdgeStyle;" parent="WIyWlLk6GJQsqaUBKTNV-1" source="Vc3Eoi6ETg7o6c7sWArZ-90" target="Vc3Eoi6ETg7o6c7sWArZ-52" edge="1">
          <mxGeometry relative="1" as="geometry">
            <mxPoint x="480" y="909.9655172413793" as="sourcePoint" />
            <mxPoint x="350" y="690.0344827586207" as="targetPoint" />
            <Array as="points">
              <mxPoint x="370" y="1040" />
              <mxPoint x="370" y="710" />
            </Array>
          </mxGeometry>
        </mxCell>
        <mxCell id="Vc3Eoi6ETg7o6c7sWArZ-105" value="1" style="edgeLabel;resizable=0;html=1;align=left;verticalAlign=bottom;" parent="Vc3Eoi6ETg7o6c7sWArZ-104" connectable="0" vertex="1">
          <mxGeometry x="-1" relative="1" as="geometry">
            <mxPoint x="-20" y="-2" as="offset" />
          </mxGeometry>
        </mxCell>
        <mxCell id="Vc3Eoi6ETg7o6c7sWArZ-106" value="*" style="edgeLabel;resizable=0;html=1;align=right;verticalAlign=bottom;" parent="Vc3Eoi6ETg7o6c7sWArZ-104" connectable="0" vertex="1">
          <mxGeometry x="1" relative="1" as="geometry">
            <mxPoint x="20" y="-2" as="offset" />
          </mxGeometry>
        </mxCell>
        <mxCell id="j9Fl9O4G742mMwjt58Km-0" style="edgeStyle=orthogonalEdgeStyle;rounded=1;orthogonalLoop=1;jettySize=auto;html=1;entryX=0;entryY=0.5;entryDx=0;entryDy=0;endArrow=none;endFill=0;" parent="WIyWlLk6GJQsqaUBKTNV-1" source="TgG3yo3TImJw_ULpONhB-1" target="Vc3Eoi6ETg7o6c7sWArZ-49" edge="1">
          <mxGeometry relative="1" as="geometry">
            <mxPoint x="-76" y="340" as="targetPoint" />
            <Array as="points">
              <mxPoint x="-730" y="325" />
            </Array>
          </mxGeometry>
        </mxCell>
        <mxCell id="3O66avkLSDY6t-DoMLN6-1" value="" style="endArrow=none;html=1;edgeStyle=orthogonalEdgeStyle;" parent="WIyWlLk6GJQsqaUBKTNV-1" source="XnUIklpJUl2y-kfIHSiw-1" target="rqP9fq4yDlE11nNga9YV-0" edge="1">
          <mxGeometry width="50" height="50" relative="1" as="geometry">
            <mxPoint x="-550" y="930" as="sourcePoint" />
            <mxPoint x="-300" y="151" as="targetPoint" />
            <Array as="points">
              <mxPoint x="-730" y="930" />
            </Array>
          </mxGeometry>
        </mxCell>
        <mxCell id="XnUIklpJUl2y-kfIHSiw-0" value="Użytkownik" style="swimlane;fontStyle=0;childLayout=stackLayout;horizontal=1;startSize=26;fillColor=none;horizontalStack=0;resizeParent=1;resizeParentMax=0;resizeLast=0;collapsible=1;marginBottom=0;" parent="WIyWlLk6GJQsqaUBKTNV-1" vertex="1">
          <mxGeometry x="-553" y="900" width="140" height="52" as="geometry" />
        </mxCell>
        <mxCell id="XnUIklpJUl2y-kfIHSiw-1" value="+" style="text;strokeColor=none;fillColor=none;align=left;verticalAlign=top;spacingLeft=4;spacingRight=4;overflow=hidden;rotatable=0;points=[[0,0.5],[1,0.5]];portConstraint=eastwest;" parent="XnUIklpJUl2y-kfIHSiw-0" vertex="1">
          <mxGeometry y="26" width="140" height="26" as="geometry" />
        </mxCell>
        <mxCell id="XnUIklpJUl2y-kfIHSiw-3" value="Extends" style="endArrow=block;endSize=16;endFill=0;html=1;edgeStyle=orthogonalEdgeStyle;entryX=1.002;entryY=0.014;entryDx=0;entryDy=0;entryPerimeter=0;exitX=-0.005;exitY=-0.021;exitDx=0;exitDy=0;exitPerimeter=0;" parent="WIyWlLk6GJQsqaUBKTNV-1" source="Vc3Eoi6ETg7o6c7sWArZ-17" target="XnUIklpJUl2y-kfIHSiw-1" edge="1">
          <mxGeometry width="160" relative="1" as="geometry">
            <mxPoint x="-370" y="1050" as="sourcePoint" />
            <mxPoint x="-370" y="952" as="targetPoint" />
            <Array as="points">
              <mxPoint x="-413" y="926" />
            </Array>
          </mxGeometry>
        </mxCell>
      </root>
    </mxGraphModel>
  </diagram>
</mxfile>
